<?xml version="1.0" standalone="no"?>
<!DOCTYPE svg PUBLIC "-//W3C//DTD SVG 20010904//EN"
 "http://www.w3.org/TR/2001/REC-SVG-20010904/DTD/svg10.dtd">
<svg version="1.0" xmlns="http://www.w3.org/2000/svg"
 width="62.000000pt" height="62.000000pt" viewBox="0 0 62.000000 62.000000"
 preserveAspectRatio="xMidYMid meet">

<g transform="translate(0.000000,62.000000) scale(0.100000,-0.100000)"
fill="#000000" stroke="none">
<path d="M295 378 c-10 -21 -12 -34 -5 -36 5 -2 10 -15 10 -28 0 -13 5 -24 10
-24 6 0 10 10 10 23 0 13 5 28 12 35 9 9 9 12 0 12 -7 0 -12 7 -12 15 0 8 5
15 10 15 6 0 10 5 10 10 0 23 -30 8 -45 -22z"/>
</g>
</svg>
