<?xml version="1.0" standalone="no"?>
<!DOCTYPE svg PUBLIC "-//W3C//DTD SVG 20010904//EN"
 "http://www.w3.org/TR/2001/REC-SVG-20010904/DTD/svg10.dtd">
<svg version="1.0" xmlns="http://www.w3.org/2000/svg"
 width="62.000000pt" height="62.000000pt" viewBox="0 0 62.000000 62.000000"
 preserveAspectRatio="xMidYMid meet">

<g transform="translate(0.000000,62.000000) scale(0.100000,-0.100000)"
fill="#000000" stroke="none">
<path d="M262 408 c-16 -16 -16 -90 0 -106 16 -16 90 -16 106 0 7 7 12 30 12
53 0 52 -13 65 -65 65 -23 0 -46 -5 -53 -12z m103 -53 l0 -50 -50 0 -50 0 -3
39 c-5 60 1 68 55 64 l48 -3 0 -50z"/>
<path d="M340 390 c0 -5 -7 -7 -15 -4 -19 8 -45 -13 -44 -35 0 -11 3 -9 9 7 5
12 16 22 25 22 9 0 20 -10 26 -22 l10 -23 -5 23 c-2 12 0 22 5 22 5 0 9 5 9
10 0 6 -4 10 -10 10 -5 0 -10 -4 -10 -10z"/>
<path d="M308 323 c7 -3 16 -2 19 1 4 3 -2 6 -13 5 -11 0 -14 -3 -6 -6z"/>
</g>
</svg>
